HIERARCHY
ROOT hip
{
	OFFSET 0.000000 0.000000 0.000000
	CHANNELS 6 Xposition Yposition Zposition Zrotation Yrotation Xrotation 
	JOINT lhipjoint
	{
		OFFSET 0.000000 0.000000 0.000000
		CHANNELS 3 Zrotation Yrotation Xrotation
		JOINT lfemur
		{
			OFFSET 1.363060 -1.794630 0.839290
			CHANNELS 3 Zrotation Yrotation Xrotation
			JOINT ltibia
			{
				OFFSET 2.448110 -6.726130 0.000000
				CHANNELS 3 Zrotation Yrotation Xrotation
				JOINT lfoot
				{
					OFFSET 2.562200 -7.039590 0.000000
					CHANNELS 3 Zrotation Yrotation Xrotation
					JOINT ltoes
					{
						OFFSET 0.157640 -0.433110 2.322550
						CHANNELS 3 Zrotation Yrotation Xrotation
						End Site
						{
							OFFSET 0.000000 0.000000 0.000000
						}
					}
				}
			}
		}
	}
	JOINT rhipjoint
	{
		OFFSET 0.000000 0.000000 0.000000
		CHANNELS 3 Zrotation Yrotation Xrotation
		JOINT rfemur
		{
			OFFSET -1.305520 -1.794630 0.839290
			CHANNELS 3 Zrotation Yrotation Xrotation
			JOINT rtibia
			{
				OFFSET -2.542530 -6.985550 0.000000
				CHANNELS 3 Zrotation Yrotation Xrotation
				JOINT rfoot
				{
					OFFSET -2.568260 -7.056230 0.000000
					CHANNELS 3 Zrotation Yrotation Xrotation
					JOINT rtoes
					{
						OFFSET -0.164730 -0.452590 2.363150
						CHANNELS 3 Zrotation Yrotation Xrotation
						End Site
						{
							OFFSET 0.000000 0.000000 0.000000
						}
					}
				}
			}
		}
	}
	JOINT lowerback
	{
		OFFSET 0.000000 0.000000 0.000000
		CHANNELS 3 Zrotation Yrotation Xrotation
		JOINT upperback
		{
			OFFSET 0.028270 2.035590 -0.193380
			CHANNELS 3 Zrotation Yrotation Xrotation
			JOINT thorax
			{
				OFFSET 0.056720 2.048850 -0.042750
				CHANNELS 3 Zrotation Yrotation Xrotation
				JOINT lowerneck
				{
					OFFSET 0.000000 0.000000 0.000000
					CHANNELS 3 Zrotation Yrotation Xrotation
					JOINT upperneck
					{
						OFFSET -0.054170 1.746240 0.172020
						CHANNELS 3 Zrotation Yrotation Xrotation
						JOINT head
						{
							OFFSET 0.104070 1.761360 -0.123970
							CHANNELS 3 Zrotation Yrotation Xrotation
							End Site
							{
								OFFSET 0.000000 0.000000 0.000000
							}
						}
					}
				}
				JOINT lclavicle
				{
					OFFSET 0.000000 0.000000 0.000000
					CHANNELS 3 Zrotation Yrotation Xrotation
					JOINT lhumerus
					{
						OFFSET 3.362410 1.200890 -0.311210
						CHANNELS 3 Zrotation Yrotation Xrotation
						JOINT lradius
						{
							OFFSET 4.983000 -0.000000 -0.000000
							CHANNELS 3 Zrotation Yrotation Xrotation
							JOINT lwrist
							{
								OFFSET 3.483560 -0.000000 -0.000000
								CHANNELS 3 Zrotation Yrotation Xrotation
								JOINT lhand
								{
									OFFSET 0.000000 0.000000 0.000000
									CHANNELS 3 Zrotation Yrotation Xrotation
									JOINT lfingers
									{
										OFFSET 0.715260 -0.000000 -0.000000
										CHANNELS 3 Zrotation Yrotation Xrotation
										End Site
										{
											OFFSET 0.000000 0.000000 0.000000
										}
									}
								}
								JOINT lthumb
								{
									OFFSET 0.000000 0.000000 0.000000
									CHANNELS 3 Zrotation Yrotation Xrotation
									End Site
									{
										OFFSET 0.000000 0.000000 0.000000
									}
								}
							}
						}
					}
				}
				JOINT rclavicle
				{
					OFFSET 0.000000 0.000000 0.000000
					CHANNELS 3 Zrotation Yrotation Xrotation
					JOINT rhumerus
					{
						OFFSET -3.136600 1.374050 -0.404650
						CHANNELS 3 Zrotation Yrotation Xrotation
						JOINT rradius
						{
							OFFSET -5.241900 -0.000000 -0.000000
							CHANNELS 3 Zrotation Yrotation Xrotation
							JOINT rwrist
							{
								OFFSET -3.444170 -0.000000 -0.000000
								CHANNELS 3 Zrotation Yrotation Xrotation
								JOINT rhand
								{
									OFFSET 0.000000 0.000000 0.000000
									CHANNELS 3 Zrotation Yrotation Xrotation
									JOINT rfingers
									{
										OFFSET -0.622530 -0.000000 -0.000000
										CHANNELS 3 Zrotation Yrotation Xrotation
										End Site
										{
											OFFSET 0.000000 0.000000 0.000000
										}
									}
								}
								JOINT rthumb
								{
									OFFSET 0.000000 0.000000 0.000000
									CHANNELS 3 Zrotation Yrotation Xrotation
									End Site
									{
										OFFSET 0.000000 0.000000 0.000000
									}
								}
							}
						}
					}
				}
			}
		}
	}
}
MOTION
Frames: 4
Frame Time: 0.008333
0.102634 2.036621 -1.704730 179.029853 27.153508 120.954774 3.595594 3.746409 -0.950651 3.179542 13.378802 -63.328370 9.269944 20.978903 58.591151 3.309859 7.457917 35.697226 1.379400 -7.431900 -21.001300 -6.348246 -2.981631 2.288750 30.455891 37.493699 -70.331809 -20.485966 -19.485379 89.760097 0.363294 -13.818394 18.720424 -0.115300 2.188900 -6.028100 -2.455224 -21.601769 53.338082 3.779132 -13.126984 1.081164 18.662693 -4.205121 8.465471 -3.610487 -1.351520 1.101587 0.285681 0.316976 25.907632 -4.025700 2.212100 0.578100 -2.111734 -5.259820 6.809950 -38.196241 14.478148 -11.823794 6.854470 -21.358433 -2.922393 -0.309859 -0.576962 168.550813 16.929102 12.078566 3.404000 -7.125000 0.000000 0.000000 -9.522700 41.844700 0.748700 11.023139 8.910768 5.839458 35.108430 24.562787 -68.493120 -140.464488 42.749079 -105.153078 0.379052 -0.021291 150.301358 11.615425 -7.080925 -1.534700 7.125000 0.000000 0.000000 31.402800 -35.493800 8.418500 
0.105729 2.041458 -1.709179 178.967025 27.133640 121.024828 3.581987 3.728719 -0.960711 3.182533 13.325012 -63.330959 9.268327 20.971404 58.566951 3.311678 7.537546 35.758931 1.380700 -7.435400 -21.012000 -6.346632 -3.004270 2.295405 30.347179 37.349933 -70.443190 -20.511322 -19.483099 89.812202 0.420637 -14.158355 18.647385 -0.108600 2.124700 -5.850300 -1.724068 -21.578064 53.023502 3.811821 -12.728706 1.073474 18.631434 -3.962155 8.287585 -3.689765 -1.715032 1.105154 -0.001398 -0.055815 25.914388 -4.114700 2.026500 0.577500 -1.848162 -5.344123 6.892596 -40.663722 15.694493 -9.882857 7.617797 -22.664499 -3.139298 -0.255590 -0.583577 165.893524 16.409116 12.881636 3.522400 -7.125000 0.000000 0.000000 -10.130600 42.616500 0.602500 10.976282 9.000945 5.796538 35.542739 25.075095 -69.145432 -142.022876 41.407954 -106.315880 0.373851 0.130996 149.180021 14.244514 -8.433015 -2.209600 7.125000 0.000000 0.000000 33.804900 -36.305500 8.480600 
0.108051 2.045908 -1.714693 178.926795 27.139405 121.111893 3.568800 3.711032 -0.971848 3.218077 13.278494 -63.353839 9.271726 20.967401 58.552272 3.308981 7.644505 35.816360 1.348700 -7.352100 -20.762800 -6.343674 -3.025872 2.301129 30.257526 37.211049 -70.561342 -20.535400 -19.480430 89.853325 0.502697 -14.640831 18.552198 -0.105000 2.089800 -5.753900 -0.972026 -21.522952 52.712259 3.845872 -12.276056 1.063253 18.633116 -3.704490 8.082530 -3.735062 -2.133392 1.121307 -0.351484 -0.466467 25.943714 -4.233500 1.826400 0.580800 -1.585559 -5.433010 6.958928 -43.038292 16.924646 -7.735572 8.358143 -23.959220 -3.356241 -0.178779 -0.582196 162.284541 16.252542 13.565351 3.686100 -7.125000 0.000000 0.000000 -10.389400 43.302200 0.440400 10.947661 9.109355 5.759229 35.905650 25.574495 -69.619091 -143.568728 40.016903 -107.437438 0.352642 0.270231 148.446701 16.516236 -9.250760 -2.785000 7.125000 0.000000 0.000000 35.722200 -36.657200 8.777400 
0.110276 2.049100 -1.719723 178.853165 27.111529 121.285834 3.549727 3.675761 -1.049748 3.252719 13.205630 -63.365763 9.275473 20.980644 58.534437 3.289291 7.837528 35.839962 1.307900 -7.244600 -20.441900 -6.355501 -3.033601 2.227179 30.140214 37.059157 -70.730388 -20.559928 -19.475705 89.900858 0.558529 -15.006914 18.526654 -0.105700 2.096700 -5.773000 -0.398299 -21.243658 51.543303 3.809131 -11.772539 1.349115 18.786648 -3.491734 8.300593 -3.690248 -2.730538 1.005110 -0.830980 -1.004752 26.223993 -4.352300 1.558900 0.643500 -1.496334 -5.472630 7.060990 -45.119840 18.055799 -5.348503 9.115800 -25.279419 -3.572860 -0.094950 -0.568403 157.954736 16.450539 14.035762 3.879400 -7.125000 0.000000 0.000000 -10.284700 43.813400 0.304600 11.020026 9.163075 5.757949 36.265153 26.198910 -69.938188 -145.165577 38.580009 -108.532213 0.329614 0.385892 148.179941 18.389424 -9.725671 -3.240500 7.125000 0.000000 0.000000 37.192000 -36.751400 9.195000 
